<svg width="20" height="21" viewBox="0 0 20 21" fill="none" xmlns="http://www.w3.org/2000/svg">
<g clip-path="url(#clip0_170_2023)">
<g clip-path="url(#clip1_170_2023)">
<path d="M0.270432 14.2616H10.111V16.0697H16.2625V14.2655H18.7064C18.8646 16.4158 18.8771 18.3304 16.6716 19.7897C16.6447 19.8075 16.623 19.8318 16.5633 19.885C16.8345 20.1103 17.1018 20.3329 17.3665 20.5529C17.0092 20.8945 16.7222 21.169 16.3932 21.4842C16.1029 21.1848 15.7889 20.8373 15.4467 20.5207C15.3462 20.4275 15.1683 20.3894 15.0224 20.3802C14.784 20.3657 14.5423 20.4045 14.302 20.4052C11.1067 20.4071 7.91145 20.4065 4.71554 20.4065C4.56251 20.4065 4.39897 20.436 4.25777 20.3933C3.83151 20.2653 3.56092 20.4629 3.3074 20.7684C3.09132 21.0284 2.84502 21.2629 2.61975 21.5007C2.31566 21.1808 2.04046 20.8918 1.73572 20.5707C1.93998 20.39 2.19941 20.1602 2.49102 19.9014C2.29004 19.7576 2.13964 19.6577 1.99712 19.5474C0.929186 18.7244 0.351873 17.6329 0.276343 16.2924C0.238906 15.6284 0.269775 14.9604 0.269775 14.2616H0.270432Z" fill="#999999"/>
<path d="M0.273589 9.28712C0.268335 9.16825 0.25914 9.06119 0.25914 8.95413C0.258483 7.21366 0.256513 5.47384 0.25914 3.73336C0.261767 1.82081 1.58913 0.486222 3.49905 0.500014C4.14007 0.504612 4.8008 0.491476 5.41686 0.636625C6.50975 0.894741 7.19806 1.65267 7.53039 2.7206C7.59476 2.92814 7.67817 3.02863 7.90607 3.09037C9.19205 3.43912 10.0945 4.64104 10.1109 5.98219C10.1135 6.19827 10.1109 6.41435 10.1109 6.64882H4.02382C3.73353 5.11392 4.56764 3.52976 6.3114 3.0352C6.15377 2.35017 5.47926 1.7722 4.77124 1.74725C4.23597 1.7282 3.69872 1.72623 3.16344 1.74725C2.24066 1.78337 1.49849 2.63062 1.49455 3.64666C1.48798 5.39765 1.49258 7.14929 1.49258 8.90028C1.49258 9.01981 1.49258 9.13935 1.49258 9.28647H0.272276L0.273589 9.28712Z" fill="#999999"/>
<path d="M10.0936 13.0327C9.96484 13.0327 9.8683 13.0327 9.77175 13.0327C6.64415 13.0327 3.51589 13.0334 0.388282 13.0321C-0.284921 13.0321 -0.768971 12.7135 -0.939078 12.1697C-1.19522 11.3514 -0.615283 10.5632 0.268748 10.5514C1.20926 10.5389 2.14978 10.5481 3.09029 10.5481C5.29971 10.5481 7.50847 10.5481 9.71789 10.5481C9.83611 10.5481 9.95434 10.5481 10.0936 10.5481V13.0321V13.0327Z" fill="#999999"/>
<path d="M15.0247 14.8711H11.3644C11.3585 14.7555 11.3486 14.6504 11.3486 14.5453C11.3473 13.2771 11.3473 12.0082 11.3486 10.7399C11.3493 9.82239 11.8504 9.31798 12.764 9.31404C13.1029 9.31272 13.4418 9.3055 13.7807 9.31601C14.5419 9.34031 15.0391 9.85194 15.0411 10.6151C15.045 11.9385 15.0424 13.2613 15.0411 14.5847C15.0411 14.6708 15.0319 14.7561 15.0247 14.8711Z" fill="#999999"/>
<path d="M16.2852 13.0209V10.5481C16.8802 10.5481 17.4667 10.5462 18.0526 10.5488C18.358 10.5501 18.6699 10.5251 18.9688 10.5744C19.621 10.6821 20.0452 11.2161 20.0183 11.8394C19.992 12.4508 19.5408 12.9756 18.9005 13.0091C18.0414 13.0544 17.1784 13.0203 16.2858 13.0203L16.2852 13.0209Z" fill="#999999"/>
</g>
</g>
<defs>
<clipPath id="clip0_170_2023">
<rect width="20" height="20" fill="white" transform="translate(0 0.5)"/>
</clipPath>
<clipPath id="clip1_170_2023">
<rect width="21.0171" height="21" fill="white" transform="translate(-1 0.5)"/>
</clipPath>
</defs>
</svg>
