<svg width="52" height="52" viewBox="0 0 52 52" fill="none" xmlns="http://www.w3.org/2000/svg">
<rect x="0.5" y="0.5" width="51" height="51" rx="25.5" fill="#141414"/>
<rect x="0.5" y="0.5" width="51" height="51" rx="25.5" stroke="#703BF7"/>
<path fill-rule="evenodd" clip-rule="evenodd" d="M22.25 20.75C22.25 18.6789 23.9289 17 26 17C28.0711 17 29.75 18.6789 29.75 20.75C29.75 22.8211 28.0711 24.5 26 24.5C23.9289 24.5 22.25 22.8211 22.25 20.75Z" fill="#A685FA"/>
<path fill-rule="evenodd" clip-rule="evenodd" d="M29.75 23.75C29.75 22.0931 31.0931 20.75 32.75 20.75C34.4069 20.75 35.75 22.0931 35.75 23.75C35.75 25.4069 34.4069 26.75 32.75 26.75C31.0931 26.75 29.75 25.4069 29.75 23.75Z" fill="#A685FA"/>
<path fill-rule="evenodd" clip-rule="evenodd" d="M16.25 23.75C16.25 22.0931 17.5931 20.75 19.25 20.75C20.9069 20.75 22.25 22.0931 22.25 23.75C22.25 25.4069 20.9069 26.75 19.25 26.75C17.5931 26.75 16.25 25.4069 16.25 23.75Z" fill="#A685FA"/>
<path fill-rule="evenodd" clip-rule="evenodd" d="M20.3099 29.1175C21.5078 27.2444 23.6083 26 26 26C28.3919 26 30.4927 27.2447 31.6906 29.1182C32.5187 30.4134 32.877 31.9752 32.709 33.4979C32.6827 33.7359 32.5444 33.947 32.3368 34.0662C30.4694 35.1376 28.3051 35.75 26 35.75C23.6949 35.75 21.5306 35.1376 19.6632 34.0662C19.4556 33.947 19.3173 33.7359 19.291 33.4979C19.1229 31.9749 19.4814 30.4129 20.3099 29.1175Z" fill="#A685FA"/>
<path d="M19.0823 28.2537C19.0702 28.2722 19.0583 28.2907 19.0464 28.3093C18.0809 29.8189 17.6391 31.6167 17.7747 33.389C17.1667 33.2967 16.5767 33.1481 16.0104 32.9487L15.8955 32.9082C15.6858 32.8343 15.5392 32.6439 15.5216 32.4222L15.5119 32.3007C15.504 32.2014 15.5 32.1011 15.5 32C15.5 29.9851 17.089 28.3414 19.0823 28.2537Z" fill="#A685FA"/>
<path d="M34.2256 33.389C34.3612 31.617 33.9196 29.8196 32.9545 28.3102C32.9424 28.2913 32.9303 28.2725 32.9181 28.2537C34.9111 28.3416 36.5 29.9853 36.5 32C36.5 32.1011 36.496 32.2014 36.4881 32.3007L36.4784 32.4222C36.4608 32.6439 36.3142 32.8343 36.1045 32.9082L35.9896 32.9487C35.4234 33.1481 34.8336 33.2966 34.2256 33.389Z" fill="#A685FA"/>
</svg>
