<svg width="48" height="48" viewBox="0 0 48 48" fill="none" xmlns="http://www.w3.org/2000/svg">
<rect x="0.5" y="0.5" width="47" height="47" rx="23.5" stroke="url(#paint0_linear_172_4327)"/>
<rect x="0.5" y="0.5" width="47" height="47" rx="23.5" stroke="url(#paint1_linear_172_4327)"/>
<rect x="6.5" y="6.5" width="35" height="35" rx="17.5" stroke="url(#paint2_linear_172_4327)"/>
<rect x="6.5" y="6.5" width="35" height="35" rx="17.5" stroke="url(#paint3_linear_172_4327)"/>
<path fill-rule="evenodd" clip-rule="evenodd" d="M15.875 25.25C15.875 21.453 18.953 18.375 22.75 18.375C23.0952 18.375 23.375 18.6548 23.375 19V24.625H29C29.3452 24.625 29.625 24.9048 29.625 25.25C29.625 29.047 26.547 32.125 22.75 32.125C18.953 32.125 15.875 29.047 15.875 25.25Z" fill="#A685FA"/>
<path fill-rule="evenodd" clip-rule="evenodd" d="M24.625 16.5C24.625 16.1548 24.9048 15.875 25.25 15.875C29.047 15.875 32.125 18.953 32.125 22.75C32.125 23.0952 31.8452 23.375 31.5 23.375H25.25C24.9048 23.375 24.625 23.0952 24.625 22.75V16.5Z" fill="#A685FA"/>
<defs>
<linearGradient id="paint0_linear_172_4327" x1="3.95122" y1="50.6341" x2="50.1951" y2="-3.21951" gradientUnits="userSpaceOnUse">
<stop stop-color="#A685FA"/>
<stop offset="0.323723" stop-color="#A685FA" stop-opacity="0"/>
</linearGradient>
<linearGradient id="paint1_linear_172_4327" x1="47.8537" y1="-6.14634" x2="3.95122" y2="48" gradientUnits="userSpaceOnUse">
<stop stop-color="#A685FA"/>
<stop offset="0.576615" stop-color="#A685FA" stop-opacity="0"/>
</linearGradient>
<linearGradient id="paint2_linear_172_4327" x1="2.08064" y1="8.03226" x2="41.8548" y2="42" gradientUnits="userSpaceOnUse">
<stop stop-color="#A685FA"/>
<stop offset="0.323723" stop-color="#A685FA" stop-opacity="0"/>
</linearGradient>
<linearGradient id="paint3_linear_172_4327" x1="49.1129" y1="50.129" x2="7.30645" y2="20.5161" gradientUnits="userSpaceOnUse">
<stop stop-color="#A685FA"/>
<stop offset="0.576615" stop-color="#A685FA" stop-opacity="0"/>
</linearGradient>
</defs>
</svg>
