<svg width="18" height="18" viewBox="0 0 18 18" fill="none" xmlns="http://www.w3.org/2000/svg">
<path fill-rule="evenodd" clip-rule="evenodd" d="M10.9614 1.1962C11.1873 1.32216 11.2983 1.58596 11.2302 1.83551L9.73646 7.3125H15.1875C15.4115 7.3125 15.6141 7.44539 15.7034 7.65082C15.7927 7.85625 15.7516 8.09506 15.5987 8.25881L7.72373 16.6963C7.54724 16.8854 7.26453 16.9298 7.0386 16.8038C6.81268 16.6779 6.70177 16.4141 6.76983 16.1645L8.26356 10.6875H2.81251C2.58853 10.6875 2.38589 10.5546 2.29662 10.3492C2.20735 10.1438 2.24846 9.90495 2.40129 9.7412L10.2763 1.3037C10.4528 1.1146 10.7355 1.07024 10.9614 1.1962Z" fill="white"/>
</svg>
