<svg width="52" height="52" viewBox="0 0 52 52" fill="none" xmlns="http://www.w3.org/2000/svg">
<rect x="0.5" y="0.5" width="51" height="51" rx="25.5" fill="#141414"/>
<rect x="0.5" y="0.5" width="51" height="51" rx="25.5" stroke="#703BF7"/>
<path d="M25.7003 16.8053C25.8917 16.7216 26.1094 16.7216 26.3008 16.8053C30.0197 18.4301 33.5442 20.4164 36.83 22.7196C37.0678 22.8862 37.188 23.1752 37.1386 23.4614C37.0892 23.7475 36.879 23.9794 36.5991 24.0567C35.9142 24.2457 35.2352 24.4494 34.5623 24.6663C31.8312 25.5471 29.2023 26.6554 26.6976 27.9688L26.6944 27.9705C26.5808 28.0301 26.4675 28.09 26.3545 28.1504C26.1336 28.2684 25.8684 28.2684 25.6476 28.1504C25.5334 28.0895 25.4191 28.0289 25.3044 27.9688C24.0659 27.3193 22.7971 26.7201 21.5005 26.1736V25.95C21.5005 25.8186 21.5679 25.702 21.6722 25.6389C23.1773 24.727 24.7299 23.8856 26.3252 23.1194C26.6986 22.94 26.8559 22.492 26.6765 22.1186C26.4972 21.7452 26.0491 21.5879 25.6758 21.7672C24.0365 22.5546 22.4413 23.4191 20.895 24.3559C20.4416 24.6306 20.1368 25.0801 20.0366 25.5838C19.1816 25.2549 18.3155 24.9486 17.4388 24.6659C16.766 24.4489 16.0869 24.2457 15.402 24.0567C15.1221 23.9794 14.9119 23.7475 14.8625 23.4613C14.8131 23.1752 14.9333 22.8862 15.1711 22.7195C18.4569 20.4164 21.9815 18.4301 25.7003 16.8053Z" fill="#A685FA"/>
<path d="M27.0614 29.4734C29.5002 28.1703 32.0626 27.0687 34.7263 26.1906C34.8605 27.6054 34.9462 29.0343 34.9818 30.4755C34.9894 30.7847 34.8064 31.0669 34.5209 31.1861C31.6698 32.3764 28.9579 33.834 26.4164 35.5277C26.1646 35.6955 25.8365 35.6955 25.5846 35.5277C23.0432 33.834 20.3312 32.3764 17.4801 31.1861C17.1946 31.0669 17.0116 30.7847 17.0193 30.4755C17.0548 29.0342 17.1405 27.6052 17.2748 26.1903C18.1958 26.4938 19.1046 26.8242 20.0005 27.1803V28.4507C19.5521 28.71 19.2505 29.1948 19.2505 29.75C19.2505 30.2453 19.4906 30.6846 19.8607 30.9577C19.7712 31.3383 19.6387 31.7108 19.4633 32.0675C19.916 32.2811 20.3648 32.5017 20.8096 32.7289C21.0629 32.2137 21.2466 31.6729 21.3606 31.1207C21.885 30.887 22.2505 30.3612 22.2505 29.75C22.2505 29.1948 21.9488 28.71 21.5005 28.4507V27.8059C22.6719 28.3177 23.8193 28.8743 24.9407 29.4734C25.6032 29.8274 26.3988 29.8274 27.0614 29.4734Z" fill="#A685FA"/>
<path d="M18.4627 33.4623C18.8818 33.0432 19.2155 32.5711 19.4633 32.0675C19.916 32.2811 20.3648 32.5017 20.8096 32.7289C20.491 33.3768 20.0621 33.9842 19.5234 34.523C19.2305 34.8158 18.7556 34.8158 18.4627 34.523C18.1698 34.2301 18.1698 33.7552 18.4627 33.4623Z" fill="#A685FA"/>
</svg>
