<svg width="44" height="44" viewBox="0 0 44 44" fill="none" xmlns="http://www.w3.org/2000/svg">
<rect x="0.5" y="0.5" width="43" height="43" rx="21.5" fill="#1A1A1A"/>
<rect x="0.5" y="0.5" width="43" height="43" rx="21.5" stroke="#262626"/>
<path fill-rule="evenodd" clip-rule="evenodd" d="M13.5996 22C13.5996 21.503 14.0026 21.1 14.4996 21.1L27.2651 21.1L22.2758 16.3488C21.9175 16.0042 21.9063 15.4345 22.2509 15.0762C22.5954 14.7179 23.1651 14.7067 23.5234 15.0513L30.1234 21.3513C30.2999 21.5209 30.3996 21.7552 30.3996 22C30.3996 22.2448 30.2999 22.4791 30.1234 22.6488L23.5234 28.9488C23.1651 29.2933 22.5954 29.2821 22.2509 28.9238C21.9063 28.5655 21.9175 27.9958 22.2758 27.6513L27.2651 22.9L14.4996 22.9C14.0026 22.9 13.5996 22.4971 13.5996 22Z" fill="white"/>
</svg>
