<svg width="48" height="48" viewBox="0 0 48 48" fill="none" xmlns="http://www.w3.org/2000/svg">
<rect x="0.5" y="0.5" width="47" height="47" rx="23.5" stroke="url(#paint0_linear_172_4335)"/>
<rect x="0.5" y="0.5" width="47" height="47" rx="23.5" stroke="url(#paint1_linear_172_4335)"/>
<rect x="6.5" y="6.5" width="35" height="35" rx="17.5" stroke="url(#paint2_linear_172_4335)"/>
<rect x="6.5" y="6.5" width="35" height="35" rx="17.5" stroke="url(#paint3_linear_172_4335)"/>
<path d="M31.5 19.3125C31.5 21.5562 28.1421 23.375 24 23.375C19.8579 23.375 16.5 21.5562 16.5 19.3125C16.5 17.0688 19.8579 15.25 24 15.25C28.1421 15.25 31.5 17.0688 31.5 19.3125Z" fill="#A685FA"/>
<path d="M24 24.625C26.2377 24.625 28.3254 24.1364 29.8987 23.2842C30.4736 22.9728 31.0206 22.5869 31.4789 22.1306C31.4929 22.2319 31.5 22.3343 31.5 22.4375C31.5 24.6812 28.1421 26.5 24 26.5C19.8579 26.5 16.5 24.6812 16.5 22.4375C16.5 22.3343 16.5071 22.2319 16.5211 22.1306C16.9794 22.5869 17.5264 22.9728 18.1013 23.2842C19.6746 24.1364 21.7623 24.625 24 24.625Z" fill="#A685FA"/>
<path d="M24 27.75C26.2377 27.75 28.3254 27.2614 29.8987 26.4092C30.4736 26.0978 31.0206 25.7119 31.4789 25.2556C31.4929 25.3569 31.5 25.4593 31.5 25.5625C31.5 27.8062 28.1421 29.625 24 29.625C19.8579 29.625 16.5 27.8062 16.5 25.5625C16.5 25.4593 16.5071 25.3569 16.5211 25.2556C16.9794 25.7119 17.5264 26.0978 18.1013 26.4092C19.6746 27.2614 21.7623 27.75 24 27.75Z" fill="#A685FA"/>
<path d="M24 30.875C26.2377 30.875 28.3254 30.3864 29.8987 29.5342C30.4736 29.2228 31.0206 28.8369 31.4789 28.3806C31.4929 28.4819 31.5 28.5843 31.5 28.6875C31.5 30.9312 28.1421 32.75 24 32.75C19.8579 32.75 16.5 30.9312 16.5 28.6875C16.5 28.5843 16.5071 28.4819 16.5211 28.3806C16.9794 28.8369 17.5264 29.2228 18.1013 29.5342C19.6746 30.3864 21.7623 30.875 24 30.875Z" fill="#A685FA"/>
<defs>
<linearGradient id="paint0_linear_172_4335" x1="3.95122" y1="50.6341" x2="50.1951" y2="-3.21951" gradientUnits="userSpaceOnUse">
<stop stop-color="#A685FA"/>
<stop offset="0.323723" stop-color="#A685FA" stop-opacity="0"/>
</linearGradient>
<linearGradient id="paint1_linear_172_4335" x1="47.8537" y1="-6.14634" x2="3.95122" y2="48" gradientUnits="userSpaceOnUse">
<stop stop-color="#A685FA"/>
<stop offset="0.576615" stop-color="#A685FA" stop-opacity="0"/>
</linearGradient>
<linearGradient id="paint2_linear_172_4335" x1="2.08064" y1="8.03226" x2="41.8548" y2="42" gradientUnits="userSpaceOnUse">
<stop stop-color="#A685FA"/>
<stop offset="0.323723" stop-color="#A685FA" stop-opacity="0"/>
</linearGradient>
<linearGradient id="paint3_linear_172_4335" x1="49.1129" y1="50.129" x2="7.30645" y2="20.5161" gradientUnits="userSpaceOnUse">
<stop stop-color="#A685FA"/>
<stop offset="0.576615" stop-color="#A685FA" stop-opacity="0"/>
</linearGradient>
</defs>
</svg>
