<svg width="44" height="44" viewBox="0 0 44 44" fill="none" xmlns="http://www.w3.org/2000/svg">
<rect x="0.5" y="0.5" width="43" height="43" rx="21.5" fill="#1A1A1A"/>
<rect x="0.5" y="0.5" width="43" height="43" rx="21.5" stroke="#262626"/>
<path fill-rule="evenodd" clip-rule="evenodd" d="M30.4004 22C30.4004 22.497 29.9974 22.9 29.5004 22.9L16.7349 22.9L21.7242 27.6512C22.0825 27.9958 22.0937 28.5655 21.7491 28.9238C21.4046 29.2821 20.8349 29.2933 20.4766 28.9487L13.8766 22.6487C13.7001 22.4791 13.6004 22.2448 13.6004 22C13.6004 21.7552 13.7001 21.5209 13.8766 21.3512L20.4766 15.0512C20.8349 14.7067 21.4046 14.7179 21.7491 15.0762C22.0937 15.4345 22.0825 16.0042 21.7242 16.3487L16.7349 21.1L29.5004 21.1C29.9974 21.1 30.4004 21.5029 30.4004 22Z" fill="white"/>
</svg>
