<svg width="83" height="82" viewBox="0 0 83 82" fill="none" xmlns="http://www.w3.org/2000/svg">
<rect x="1" y="0.5" width="81" height="81" rx="40.5" stroke="url(#paint0_linear_121_1908)"/>
<rect x="1" y="0.5" width="81" height="81" rx="40.5" stroke="url(#paint1_linear_121_1908)"/>
<rect x="11" y="10.5" width="61" height="61" rx="30.5" stroke="url(#paint2_linear_121_1908)"/>
<rect x="11" y="10.5" width="61" height="61" rx="30.5" stroke="url(#paint3_linear_121_1908)"/>
<path fill-rule="evenodd" clip-rule="evenodd" d="M26.2002 28.675C26.2002 27.9708 26.771 27.4 27.4752 27.4H45.3252C46.0294 27.4 46.6002 27.9708 46.6002 28.675C46.6002 29.3792 46.0294 29.95 45.3252 29.95H44.9002V53.325C44.9002 54.0292 44.3294 54.6 43.6252 54.6H41.0752C40.371 54.6 39.8002 54.0292 39.8002 53.325V49.075C39.8002 48.3708 39.2294 47.8 38.5252 47.8H34.2752C33.571 47.8 33.0002 48.3708 33.0002 49.075V53.325C33.0002 54.0292 32.4294 54.6 31.7252 54.6H27.4752C26.771 54.6 26.2002 54.0292 26.2002 53.325C26.2002 52.6208 26.771 52.05 27.4752 52.05H27.9002V29.95H27.4752C26.771 29.95 26.2002 29.3792 26.2002 28.675ZM31.3002 33.35C31.3002 32.8806 31.6808 32.5 32.1502 32.5H33.8502C34.3196 32.5 34.7002 32.8806 34.7002 33.35V35.05C34.7002 35.5194 34.3196 35.9 33.8502 35.9H32.1502C31.6808 35.9 31.3002 35.5194 31.3002 35.05V33.35ZM32.1502 39.3C31.6808 39.3 31.3002 39.6806 31.3002 40.15V41.85C31.3002 42.3194 31.6808 42.7 32.1502 42.7H33.8502C34.3196 42.7 34.7002 42.3194 34.7002 41.85V40.15C34.7002 39.6806 34.3196 39.3 33.8502 39.3H32.1502ZM38.1002 33.35C38.1002 32.8806 38.4808 32.5 38.9502 32.5H40.6502C41.1196 32.5 41.5002 32.8806 41.5002 33.35V35.05C41.5002 35.5194 41.1196 35.9 40.6502 35.9H38.9502C38.4808 35.9 38.1002 35.5194 38.1002 35.05V33.35ZM38.9502 39.3C38.4808 39.3 38.1002 39.6806 38.1002 40.15V41.85C38.1002 42.3194 38.4808 42.7 38.9502 42.7H40.6502C41.1196 42.7 41.5002 42.3194 41.5002 41.85V40.15C41.5002 39.6806 41.1196 39.3 40.6502 39.3H38.9502Z" fill="#A685FA"/>
<path fill-rule="evenodd" clip-rule="evenodd" d="M48.7252 34.2C48.021 34.2 47.4502 34.7708 47.4502 35.475V52.9C47.4502 53.8389 48.2113 54.6 49.1502 54.6H55.5252C56.2294 54.6 56.8002 54.0292 56.8002 53.325C56.8002 52.6208 56.2294 52.05 55.5252 52.05H55.1002V36.75H55.5252C56.2294 36.75 56.8002 36.1792 56.8002 35.475C56.8002 34.7708 56.2294 34.2 55.5252 34.2H48.7252ZM49.5752 40.15C49.5752 39.6806 49.9558 39.3 50.4252 39.3H52.1252C52.5946 39.3 52.9752 39.6806 52.9752 40.15V41.85C52.9752 42.3194 52.5946 42.7 52.1252 42.7H50.4252C49.9558 42.7 49.5752 42.3194 49.5752 41.85V40.15ZM50.4252 46.1C49.9558 46.1 49.5752 46.4806 49.5752 46.95V48.65C49.5752 49.1194 49.9558 49.5 50.4252 49.5H52.1252C52.5946 49.5 52.9752 49.1194 52.9752 48.65V46.95C52.9752 46.4806 52.5946 46.1 52.1252 46.1H50.4252Z" fill="#A685FA"/>
<defs>
<linearGradient id="paint0_linear_121_1908" x1="7.25" y1="86.5" x2="86.25" y2="-5.5" gradientUnits="userSpaceOnUse">
<stop stop-color="#A685FA"/>
<stop offset="0.323723" stop-color="#A685FA" stop-opacity="0"/>
</linearGradient>
<linearGradient id="paint1_linear_121_1908" x1="82.25" y1="-10.5" x2="7.25" y2="82" gradientUnits="userSpaceOnUse">
<stop stop-color="#A685FA"/>
<stop offset="0.576615" stop-color="#A685FA" stop-opacity="0"/>
</linearGradient>
<linearGradient id="paint2_linear_121_1908" x1="3.75" y1="13.5" x2="72.25" y2="72" gradientUnits="userSpaceOnUse">
<stop stop-color="#A685FA"/>
<stop offset="0.323723" stop-color="#A685FA" stop-opacity="0"/>
</linearGradient>
<linearGradient id="paint3_linear_121_1908" x1="84.75" y1="86" x2="12.75" y2="35" gradientUnits="userSpaceOnUse">
<stop stop-color="#A685FA"/>
<stop offset="0.576615" stop-color="#A685FA" stop-opacity="0"/>
</linearGradient>
</defs>
</svg>
