<svg width="48" height="48" viewBox="0 0 48 48" fill="none" xmlns="http://www.w3.org/2000/svg">
<rect width="48" height="48" rx="24" fill="#703BF7"/>
<path d="M31.8555 16.1487C31.4389 15.7228 30.8222 15.5653 30.2472 15.732L16.8389 19.6062C16.2322 19.7745 15.8022 20.2553 15.6864 20.8653C15.568 21.487 15.9814 22.277 16.5214 22.607L20.7139 25.167C21.1439 25.4303 21.6989 25.3645 22.0547 25.0078L26.8555 20.207C27.0972 19.9562 27.4972 19.9562 27.7389 20.207C27.9805 20.4478 27.9805 20.8403 27.7389 21.0903L22.9297 25.8912C22.573 26.2478 22.5064 26.8012 22.7689 27.232L25.3305 31.4403C25.6305 31.9395 26.1472 32.2237 26.7139 32.2237C26.7805 32.2237 26.8555 32.2237 26.9222 32.2145C27.5722 32.132 28.0889 31.6895 28.2805 31.0645L32.2555 17.757C32.4305 17.1903 32.2722 16.5737 31.8555 16.1487Z" fill="white"/>
<path opacity="0.4" d="M21.875 29.952C22.1184 30.1961 22.1184 30.592 21.875 30.8361L20.7367 31.9736C20.615 32.0961 20.455 32.157 20.295 32.157C20.135 32.157 19.975 32.0961 19.8534 31.9736C19.6092 31.7295 19.6092 31.3345 19.8534 31.0903L20.9909 29.952C21.235 29.7086 21.6309 29.7086 21.875 29.952ZM21.2219 26.7953C21.4653 27.0395 21.4653 27.4353 21.2219 27.6795L20.0836 28.817C19.9619 28.9395 19.8019 29.0003 19.6419 29.0003C19.4819 29.0003 19.3219 28.9395 19.2003 28.817C18.9561 28.5728 18.9561 28.1778 19.2003 27.9336L20.3378 26.7953C20.5819 26.552 20.9778 26.552 21.2219 26.7953ZM18.0876 25.8016C18.3309 26.0458 18.3309 26.4416 18.0876 26.6858L16.9493 27.8233C16.8276 27.9458 16.6676 28.0066 16.5076 28.0066C16.3476 28.0066 16.1876 27.9458 16.0659 27.8233C15.8218 27.5791 15.8218 27.1841 16.0659 26.94L17.2034 25.8016C17.4476 25.5583 17.8434 25.5583 18.0876 25.8016Z" fill="white"/>
</svg>
