<svg width="83" height="82" viewBox="0 0 83 82" fill="none" xmlns="http://www.w3.org/2000/svg">
<rect x="1" y="0.5" width="81" height="81" rx="40.5" stroke="url(#paint0_linear_121_1916)"/>
<rect x="1" y="0.5" width="81" height="81" rx="40.5" stroke="url(#paint1_linear_121_1916)"/>
<rect x="11" y="10.5" width="61" height="61" rx="30.5" stroke="url(#paint2_linear_121_1916)"/>
<rect x="11" y="10.5" width="61" height="61" rx="30.5" stroke="url(#paint3_linear_121_1916)"/>
<path d="M41.5 27.1875C42.0868 27.1875 42.5625 27.6632 42.5625 28.25V31.4375C42.5625 32.0243 42.0868 32.5 41.5 32.5C40.9132 32.5 40.4375 32.0243 40.4375 31.4375V28.25C40.4375 27.6632 40.9132 27.1875 41.5 27.1875Z" fill="#A685FA"/>
<path d="M35.125 41C35.125 37.4792 37.9792 34.625 41.5 34.625C45.0208 34.625 47.875 37.4792 47.875 41C47.875 44.5208 45.0208 47.375 41.5 47.375C37.9792 47.375 35.125 44.5208 35.125 41Z" fill="#A685FA"/>
<path d="M51.267 32.7356C51.6819 32.3207 51.6819 31.648 51.267 31.233C50.8521 30.8181 50.1793 30.8181 49.7644 31.233L47.5105 33.4869C47.0955 33.9019 47.0955 34.5746 47.5105 34.9895C47.9254 35.4045 48.5982 35.4045 49.0131 34.9895L51.267 32.7356Z" fill="#A685FA"/>
<path d="M55.3125 41C55.3125 41.5868 54.8368 42.0625 54.25 42.0625H51.0625C50.4757 42.0625 50 41.5868 50 41C50 40.4132 50.4757 39.9375 51.0625 39.9375H54.25C54.8368 39.9375 55.3125 40.4132 55.3125 41Z" fill="#A685FA"/>
<path d="M49.7642 50.7669C50.1792 51.1818 50.8519 51.1818 51.2668 50.7669C51.6818 50.3519 51.6818 49.6792 51.2668 49.2643L49.0129 47.0104C48.598 46.5954 47.9253 46.5954 47.5103 47.0104C47.0954 47.4253 47.0954 48.098 47.5103 48.513L49.7642 50.7669Z" fill="#A685FA"/>
<path d="M41.5 49.5C42.0868 49.5 42.5625 49.9757 42.5625 50.5625V53.75C42.5625 54.3368 42.0868 54.8125 41.5 54.8125C40.9132 54.8125 40.4375 54.3368 40.4375 53.75V50.5625C40.4375 49.9757 40.9132 49.5 41.5 49.5Z" fill="#A685FA"/>
<path d="M35.4898 48.513C35.9047 48.098 35.9047 47.4253 35.4898 47.0104C35.0749 46.5954 34.4021 46.5954 33.9872 47.0104L31.7333 49.2643C31.3184 49.6792 31.3184 50.3519 31.7333 50.7669C32.1482 51.1818 32.821 51.1818 33.2359 50.7669L35.4898 48.513Z" fill="#A685FA"/>
<path d="M33 41C33 41.5868 32.5243 42.0625 31.9375 42.0625H28.75C28.1632 42.0625 27.6875 41.5868 27.6875 41C27.6875 40.4132 28.1632 39.9375 28.75 39.9375H31.9375C32.5243 39.9375 33 40.4132 33 41Z" fill="#A685FA"/>
<path d="M33.987 34.9895C34.402 35.4045 35.0747 35.4045 35.4896 34.9895C35.9046 34.5746 35.9046 33.9019 35.4896 33.4869L33.2357 31.233C32.8208 30.8181 32.1481 30.8181 31.7331 31.233C31.3182 31.648 31.3182 32.3207 31.7331 32.7356L33.987 34.9895Z" fill="#A685FA"/>
<defs>
<linearGradient id="paint0_linear_121_1916" x1="7.25" y1="86.5" x2="86.25" y2="-5.5" gradientUnits="userSpaceOnUse">
<stop stop-color="#A685FA"/>
<stop offset="0.323723" stop-color="#A685FA" stop-opacity="0"/>
</linearGradient>
<linearGradient id="paint1_linear_121_1916" x1="82.25" y1="-10.5" x2="7.25" y2="82" gradientUnits="userSpaceOnUse">
<stop stop-color="#A685FA"/>
<stop offset="0.576615" stop-color="#A685FA" stop-opacity="0"/>
</linearGradient>
<linearGradient id="paint2_linear_121_1916" x1="3.75" y1="13.5" x2="72.25" y2="72" gradientUnits="userSpaceOnUse">
<stop stop-color="#A685FA"/>
<stop offset="0.323723" stop-color="#A685FA" stop-opacity="0"/>
</linearGradient>
<linearGradient id="paint3_linear_121_1916" x1="84.75" y1="86" x2="12.75" y2="35" gradientUnits="userSpaceOnUse">
<stop stop-color="#A685FA"/>
<stop offset="0.576615" stop-color="#A685FA" stop-opacity="0"/>
</linearGradient>
</defs>
</svg>
