<svg width="82" height="82" viewBox="0 0 82 82" fill="none" xmlns="http://www.w3.org/2000/svg">
<rect x="0.5" y="0.5" width="81" height="81" rx="40.5" stroke="url(#paint0_linear_104_11617)"/>
<rect x="0.5" y="0.5" width="81" height="81" rx="40.5" stroke="url(#paint1_linear_104_11617)"/>
<rect x="10.5" y="10.5" width="61" height="61" rx="30.5" stroke="url(#paint2_linear_104_11617)"/>
<rect x="10.5" y="10.5" width="61" height="61" rx="30.5" stroke="url(#paint3_linear_104_11617)"/>
<path fill-rule="evenodd" clip-rule="evenodd" d="M36.75 30.375C37.2244 30.375 37.6413 30.6895 37.7716 31.1456L38.9236 35.1777C39.4279 36.9426 40.8074 38.3221 42.5723 38.8264L46.6044 39.9784C47.0605 40.1087 47.375 40.5256 47.375 41C47.375 41.4744 47.0605 41.8913 46.6044 42.0216L42.5723 43.1736C40.8074 43.6779 39.4279 45.0574 38.9236 46.8223L37.7716 50.8544C37.6413 51.3105 37.2244 51.625 36.75 51.625C36.2756 51.625 35.8587 51.3105 35.7284 50.8544L34.5764 46.8223C34.0721 45.0574 32.6926 43.6779 30.9277 43.1736L26.8956 42.0216C26.4395 41.8913 26.125 41.4744 26.125 41C26.125 40.5256 26.4395 40.1087 26.8956 39.9784L30.9277 38.8264C32.6926 38.3221 34.0721 36.9426 34.5764 35.1777L35.7284 31.1456C35.8587 30.6895 36.2756 30.375 36.75 30.375Z" fill="#A685FA"/>
<path fill-rule="evenodd" clip-rule="evenodd" d="M49.5 26.125C49.9875 26.125 50.4125 26.4568 50.5308 26.9298L50.8975 28.3967C51.2306 29.7291 52.2709 30.7694 53.6033 31.1025L55.0702 31.4692C55.5432 31.5875 55.875 32.0125 55.875 32.5C55.875 32.9875 55.5432 33.4125 55.0702 33.5308L53.6033 33.8975C52.2709 34.2306 51.2306 35.2709 50.8975 36.6033L50.5308 38.0702C50.4125 38.5432 49.9875 38.875 49.5 38.875C49.0125 38.875 48.5875 38.5432 48.4692 38.0702L48.1025 36.6033C47.7694 35.2709 46.7291 34.2306 45.3967 33.8975L43.9298 33.5308C43.4568 33.4125 43.125 32.9875 43.125 32.5C43.125 32.0125 43.4568 31.5875 43.9298 31.4692L45.3967 31.1025C46.7291 30.7694 47.7694 29.7291 48.1025 28.3967L48.4692 26.9298C48.5875 26.4568 49.0125 26.125 49.5 26.125Z" fill="#A685FA"/>
<path fill-rule="evenodd" clip-rule="evenodd" d="M47.375 45.25C47.8323 45.25 48.2384 45.5426 48.383 45.9765L48.9415 47.652C49.153 48.2866 49.6509 48.7845 50.2855 48.996L51.961 49.5545C52.3949 49.6991 52.6875 50.1052 52.6875 50.5625C52.6875 51.0198 52.3949 51.4259 51.961 51.5705L50.2855 52.129C49.6509 52.3405 49.153 52.8384 48.9415 53.473L48.383 55.1485C48.2384 55.5824 47.8323 55.875 47.375 55.875C46.9177 55.875 46.5116 55.5824 46.367 55.1485L45.8085 53.473C45.597 52.8384 45.0991 52.3405 44.4645 52.129L42.789 51.5705C42.3551 51.4259 42.0625 51.0198 42.0625 50.5625C42.0625 50.1052 42.3551 49.6991 42.789 49.5545L44.4645 48.996C45.0991 48.7845 45.597 48.2866 45.8085 47.652L46.367 45.9765C46.5116 45.5426 46.9177 45.25 47.375 45.25Z" fill="#A685FA"/>
<defs>
<linearGradient id="paint0_linear_104_11617" x1="6.75" y1="86.5" x2="85.75" y2="-5.5" gradientUnits="userSpaceOnUse">
<stop stop-color="#A685FA"/>
<stop offset="0.323723" stop-color="#A685FA" stop-opacity="0"/>
</linearGradient>
<linearGradient id="paint1_linear_104_11617" x1="81.75" y1="-10.5" x2="6.75" y2="82" gradientUnits="userSpaceOnUse">
<stop stop-color="#A685FA"/>
<stop offset="0.576615" stop-color="#A685FA" stop-opacity="0"/>
</linearGradient>
<linearGradient id="paint2_linear_104_11617" x1="3.25" y1="13.5" x2="71.75" y2="72" gradientUnits="userSpaceOnUse">
<stop stop-color="#A685FA"/>
<stop offset="0.323723" stop-color="#A685FA" stop-opacity="0"/>
</linearGradient>
<linearGradient id="paint3_linear_104_11617" x1="84.25" y1="86" x2="12.25" y2="35" gradientUnits="userSpaceOnUse">
<stop stop-color="#A685FA"/>
<stop offset="0.576615" stop-color="#A685FA" stop-opacity="0"/>
</linearGradient>
</defs>
</svg>
