<svg width="30" height="30" viewBox="0 0 30 30" fill="none" xmlns="http://www.w3.org/2000/svg">
<rect x="0.5" y="0.5" width="29" height="29" rx="14.5" fill="#1A1A1A"/>
<rect x="0.5" y="0.5" width="29" height="29" rx="14.5" stroke="#262626"/>
<path d="M14.1586 7.30996C14.5522 6.69719 15.4478 6.69719 15.8414 7.30996L17.8577 10.4491C17.9931 10.6599 18.2027 10.8122 18.4451 10.8759L22.0537 11.8234C22.7581 12.0084 23.0348 12.8602 22.5737 13.4239L20.2112 16.3115C20.0526 16.5054 19.9725 16.7519 19.9869 17.0021L20.2008 20.7268C20.2426 21.4539 19.518 21.9803 18.8394 21.7159L15.363 20.3615C15.1296 20.2705 14.8704 20.2705 14.637 20.3615L11.1606 21.7159C10.482 21.9803 9.75745 21.4539 9.79921 20.7268L10.0131 17.0021C10.0275 16.7519 9.94744 16.5054 9.78877 16.3115L7.42633 13.4239C6.96518 12.8602 7.24194 12.0084 7.94634 11.8234L11.5549 10.8759C11.7973 10.8122 12.0069 10.6599 12.1423 10.4491L14.1586 7.30996Z" fill="#FFE600"/>
</svg>
