<svg width="48" height="48" viewBox="0 0 48 48" fill="none" xmlns="http://www.w3.org/2000/svg">
<rect x="0.5" y="0.5" width="47" height="47" rx="23.5" stroke="url(#paint0_linear_172_4319)"/>
<rect x="0.5" y="0.5" width="47" height="47" rx="23.5" stroke="url(#paint1_linear_172_4319)"/>
<rect x="6.5" y="6.5" width="35" height="35" rx="17.5" stroke="url(#paint2_linear_172_4319)"/>
<rect x="6.5" y="6.5" width="35" height="35" rx="17.5" stroke="url(#paint3_linear_172_4319)"/>
<path d="M29.3125 15.875C28.4496 15.875 27.75 16.5746 27.75 17.4375V30.5625C27.75 31.4254 28.4496 32.125 29.3125 32.125H29.9375C30.8004 32.125 31.5 31.4254 31.5 30.5625V17.4375C31.5 16.5746 30.8004 15.875 29.9375 15.875H29.3125Z" fill="#A685FA"/>
<path d="M22.125 21.1875C22.125 20.3246 22.8246 19.625 23.6875 19.625H24.3125C25.1754 19.625 25.875 20.3246 25.875 21.1875V30.5625C25.875 31.4254 25.1754 32.125 24.3125 32.125H23.6875C22.8246 32.125 22.125 31.4254 22.125 30.5625V21.1875Z" fill="#A685FA"/>
<path d="M16.5 24.9375C16.5 24.0746 17.1996 23.375 18.0625 23.375H18.6875C19.5504 23.375 20.25 24.0746 20.25 24.9375V30.5625C20.25 31.4254 19.5504 32.125 18.6875 32.125H18.0625C17.1996 32.125 16.5 31.4254 16.5 30.5625V24.9375Z" fill="#A685FA"/>
<defs>
<linearGradient id="paint0_linear_172_4319" x1="3.95122" y1="50.6341" x2="50.1951" y2="-3.21951" gradientUnits="userSpaceOnUse">
<stop stop-color="#A685FA"/>
<stop offset="0.323723" stop-color="#A685FA" stop-opacity="0"/>
</linearGradient>
<linearGradient id="paint1_linear_172_4319" x1="47.8537" y1="-6.14634" x2="3.95122" y2="48" gradientUnits="userSpaceOnUse">
<stop stop-color="#A685FA"/>
<stop offset="0.576615" stop-color="#A685FA" stop-opacity="0"/>
</linearGradient>
<linearGradient id="paint2_linear_172_4319" x1="2.08064" y1="8.03226" x2="41.8548" y2="42" gradientUnits="userSpaceOnUse">
<stop stop-color="#A685FA"/>
<stop offset="0.323723" stop-color="#A685FA" stop-opacity="0"/>
</linearGradient>
<linearGradient id="paint3_linear_172_4319" x1="49.1129" y1="50.129" x2="7.30645" y2="20.5161" gradientUnits="userSpaceOnUse">
<stop stop-color="#A685FA"/>
<stop offset="0.576615" stop-color="#A685FA" stop-opacity="0"/>
</linearGradient>
</defs>
</svg>
