<svg width="52" height="52" viewBox="0 0 52 52" fill="none" xmlns="http://www.w3.org/2000/svg">
<rect x="0.5" y="0.5" width="51" height="51" rx="25.5" fill="#141414"/>
<rect x="0.5" y="0.5" width="51" height="51" rx="25.5" stroke="#703BF7"/>
<path fill-rule="evenodd" clip-rule="evenodd" d="M24.7874 17.2107C25.2357 16.1327 26.7627 16.1327 27.2111 17.2107L29.2931 22.2164L34.6972 22.6496C35.8609 22.7429 36.3328 24.1952 35.4461 24.9547L31.3288 28.4817L32.5867 33.7552C32.8576 34.8908 31.6222 35.7883 30.6259 35.1798L25.9992 32.3538L21.3726 35.1798C20.3762 35.7883 19.1408 34.8908 19.4117 33.7552L20.6696 28.4817L16.5523 24.9547C15.6657 24.1952 16.1375 22.7429 17.3013 22.6496L22.7054 22.2164L24.7874 17.2107Z" fill="#A685FA"/>
</svg>
