<svg width="1279" height="763" viewBox="0 0 1279 763" fill="none" xmlns="http://www.w3.org/2000/svg">
<path d="M-561.941 949.766C-323.46 893.097 -104.721 940.402 126.357 1003.36C233.659 1032.57 340.897 1050.24 450.155 1019.94C507.972 1003.9 561.784 977.475 613.448 947.361C694.405 900.185 764.241 824.979 845.744 782.196C1059.8 669.852 1186.75 945.308 1371.74 989.181C1458.69 1009.8 1509.62 962.53 1587.05 938.125C1680.77 908.587 1764.06 957.656 1841.75 1006.24" stroke="url(#paint0_linear_172_6376)" stroke-miterlimit="10"/>
<path d="M-561.941 905.252C-334.197 842.457 -140.777 904.482 75.0456 975.487C182.091 1010.7 288.849 1037.06 400.414 1008.2C570.149 964.294 680.784 830.687 823.437 740.664C1055.09 594.517 1158.32 919.972 1360.43 961.408C1447.92 979.368 1497.41 923.532 1574.75 896.561C1672.69 862.405 1763.1 923.917 1841.78 976.481" stroke="url(#paint1_linear_172_6376)" stroke-miterlimit="10"/>
<path d="M-561.941 860.962C-340.959 789.54 -171.288 869.813 31.6503 949.381C141.228 992.324 252.056 1027.15 368.813 991.651C541.913 939.022 654.728 795.666 797.83 695.957C1041.12 526.463 1120.99 888.639 1329.95 931.229C1418.89 949.349 1473.79 887.388 1549.94 857.146C1657.5 814.427 1756.24 887.132 1841.78 946.88" stroke="url(#paint2_linear_172_6376)" stroke-miterlimit="10"/>
<path d="M-561.941 817.474C-462.94 779.726 -366.31 771.035 -263.912 801.503C-169.365 829.629 -88.1833 886.426 1.04295 926.611C106.422 974.076 214.686 1015.7 330.001 977.892C513.165 917.823 623.415 754.711 772.895 646.504C1014.93 471.269 1085.35 844.798 1284.05 895.181C1384.66 920.678 1442.96 846.755 1528.5 812.952C1644.1 767.251 1752.11 852.559 1841.78 917.182" stroke="url(#paint3_linear_172_6376)" stroke-miterlimit="10"/>
<path d="M-561.941 775.493C-472.843 735.116 -384.066 722.544 -289.968 754.102C-197.28 785.179 -121.996 850.603 -36.6155 895.887C62.7064 948.579 164.913 1001.46 279.202 967.726C470.827 911.217 591.109 728.028 739.82 609.494C993.396 407.352 1035.48 813.85 1243.22 860.641C1349.82 884.662 1416.2 798.937 1507.73 765.519C1630.86 720.588 1748.97 818.757 1841.75 887.452" stroke="url(#paint4_linear_172_6376)" stroke-miterlimit="10"/>
<path d="M-561.941 735.629C-356.022 624.985 -232.343 755.866 -64.6268 861.636C30.6248 921.704 133.184 991.202 249.909 952.524C438.937 889.89 563.29 701.57 706.584 576.333C799.08 495.515 887.633 476.753 966.859 578.995C1035.57 667.639 1079.71 795.313 1201.98 821.002C1308.44 843.355 1383.63 755.609 1474.97 719.85C1609.39 667.19 1742.46 782.324 1841.78 857.787" stroke="url(#paint5_linear_172_6376)" stroke-miterlimit="10"/>
<path d="M-561.941 698.555C-362.496 573.126 -238.208 703.366 -80.9081 821.579C2.99795 884.63 97.9932 971.959 211.353 942.358C280.356 924.334 341.539 873.117 394.228 827.897C495.505 741.017 579.571 638.519 675.72 546.732C767.895 458.729 858.756 424.093 937.79 540.189C996.698 626.717 1041.89 760.388 1160.31 779.278C1272.9 797.237 1355.3 700.576 1454.05 667.158C1596.47 618.923 1740.06 748.554 1841.78 828.025" stroke="url(#paint6_linear_172_6376)" stroke-miterlimit="10"/>
<path d="M-561.941 664.945C-484.189 608.981 -398.392 573.864 -303.653 607.955C-219.298 638.326 -153.725 708.882 -88.8884 767.668C-15.8152 833.926 76.4878 951.562 188.662 928.439C251.799 915.418 307.342 867.055 354.519 825.876C458.648 734.956 549.925 629.635 643.542 528.323C731.166 433.458 828.277 365.211 910.003 497.246C965.033 586.115 1007.75 726.681 1132.56 731.62C1243.32 736.014 1326.55 647.498 1426.39 614.85C1579.52 564.788 1734.87 711.929 1841.82 798.36" stroke="url(#paint7_linear_172_6376)" stroke-miterlimit="10"/>
<path d="M-561.941 634.093C-482.138 571.875 -393.232 530.568 -292.436 566.423C-207.376 596.666 -136.931 665.618 -74.0494 727.611C-8.66813 792.106 79.0839 918.786 186.13 897.17C246.031 885.079 298.72 836.62 342.885 797.301C443.873 707.343 534.061 604.78 625.306 505.264C708.86 414.151 806.996 331.087 889.876 462.514C944.104 548.496 985.288 685.727 1107.75 687.427C1217.55 688.934 1309.12 609.174 1411.64 581.849C1571.22 539.291 1727.17 678.8 1841.78 767.924" stroke="url(#paint8_linear_172_6376)" stroke-miterlimit="10"/>
<path d="M-561.941 599.713C-473.901 530.408 -379.963 493.141 -272.341 541.248C-183.339 581.048 -105.394 656.35 -36.5193 723.025C25.2725 782.869 101.839 883.86 199.27 852.399C258.722 833.189 310.418 781.875 354.775 740.632C443.681 657.986 526.305 568.476 610.179 480.794C690.111 397.185 787.093 315.854 873.018 432.431C934.137 515.367 973.045 648.012 1095.06 654.073C1203.74 659.461 1308.83 587.718 1413.6 568.476C1572.05 539.356 1719.42 648.653 1841.82 732.871" stroke="url(#paint9_linear_172_6376)" stroke-miterlimit="10"/>
<path d="M-561.941 561.517C-467.267 489.229 -370.797 457.447 -260.194 514.533C-175.455 558.245 -97.2534 628.641 -27.5453 692.879C37.4193 752.755 117.191 855.927 215.359 810.258C266.606 786.429 308.784 741.049 349.038 702.66C433.713 621.842 513.805 536.149 596.494 453.342C682.034 367.68 778.952 301.262 867.698 415.145C928.784 493.558 972.789 616.999 1088.62 622.13C1195.18 626.877 1301.04 575.788 1405.04 558.791C1565.58 532.557 1708.1 614.466 1841.82 693.392" stroke="url(#paint10_linear_172_6376)" stroke-miterlimit="10"/>
<path d="M-561.941 520.209C-452.748 441.379 -348.587 423.548 -232.311 496.894C-148.757 549.586 -71.5176 620.976 3.25425 685.342C65.687 739.093 135.908 823.471 223.275 774.595C270.068 748.425 309.008 701.762 346.282 664.015C425.637 583.613 502.908 501.256 584.571 423.163C669.182 342.248 766.036 283.847 856.096 386.089C923.336 462.418 969.904 584.159 1085.44 595.191C1187.26 604.909 1298.22 565.077 1398.38 549.554C1558.43 524.763 1699.26 581.369 1841.75 650.481" stroke="url(#paint11_linear_172_6376)" stroke-miterlimit="10"/>
<path d="M-561.941 476.561C-443.646 396.929 -334.87 388.398 -216.318 471.718C-126.867 534.577 -46.4867 614.016 38.5731 682.905C97.0637 730.241 161.772 795.153 234.877 740.76C283.208 704.809 322.661 650.641 362.787 606.512C430.637 531.947 500.184 458.377 574.828 390.579C666.298 307.483 765.491 268.229 857.602 368.386C925.035 441.7 976.699 556.129 1087.49 568.54C1192.36 580.278 1305.75 552.729 1409.63 538.458C1562.37 517.483 1698.33 551.639 1841.78 604.78" stroke="url(#paint12_linear_172_6376)" stroke-miterlimit="10"/>
<path d="M-561.941 431.245C-427.076 346.866 -312.435 355.846 -188.627 454.753C-94.6894 529.799 -14.6294 617.127 83.2823 687.94C150.458 736.495 198.886 763.916 260.197 696.246C364.39 581.24 448.777 450.167 570.854 351.004C660.465 278.235 759.049 251.103 848.34 335.802C923.785 407.352 974.551 517.195 1083.46 542.98C1184 566.744 1310.18 543.3 1411.26 529.51C1560.45 509.145 1695.09 521.107 1841.82 557.283" stroke="url(#paint13_linear_172_6376)" stroke-miterlimit="10"/>
<path d="M-561.941 385.031C-410.923 296.868 -287.949 325.507 -160.616 438.365C-69.4022 519.215 6.45931 612.83 109.98 679.249C185.969 728.028 225.968 736.655 277.952 658.98C360.32 535.924 443.232 410.142 563.226 319.382C660.24 245.972 758.537 229.487 853.34 314.122C932.278 384.614 988.461 498.016 1100.09 522.967C1199.09 545.096 1314.63 534.577 1414.43 520.979C1559.33 501.223 1695.44 492.308 1841.82 508.632" stroke="url(#paint14_linear_172_6376)" stroke-miterlimit="10"/>
<path d="M-561.941 338.656C-397.334 247.735 -268.559 292.538 -138.085 416.941C-45.7496 504.976 30.3684 612.509 144.049 674.919C228.435 721.261 258.049 697.176 298.304 617.737C362.339 491.41 443.328 363.736 561.944 281.442C662.356 211.752 763.921 209.603 858.243 289.684C940.515 359.567 1000.45 470.018 1110.67 500.999C1347.06 567.45 1604.33 468.126 1841.82 459.884" stroke="url(#paint15_linear_172_6376)" stroke-miterlimit="10"/>
<path d="M-561.941 292.827C-480.055 249.179 -403.071 223.265 -311.441 255.048C-235.644 281.346 -173.564 336.54 -117.957 392.76C-26.2313 485.573 52.1942 610.457 174.4 665.618C266.062 706.99 287.759 651.251 318.687 573.479C369.101 446.607 445.219 316.624 564.156 242.347C823.373 80.4217 916.926 408.058 1123.17 479.094C1364.02 562.062 1606.28 457.382 1841.82 411.746" stroke="url(#paint16_linear_172_6376)" stroke-miterlimit="10"/>
<path d="M-561.941 248.281C-476.529 203.061 -397.815 177.853 -304.519 212.201C-226.253 241 -162.987 299.85 -106.291 359.47C-17.1292 453.213 75.0776 615.492 208.084 652.822C301.188 678.96 315.867 591.791 339.455 521.62C380.735 398.789 451.886 263.354 570.918 198.378C818.021 63.4884 942.47 366.782 1129.03 452.508C1373.79 564.98 1610.8 449.653 1841.78 365.05" stroke="url(#paint17_linear_172_6376)" stroke-miterlimit="10"/>
<path d="M-561.941 205.787C-475.696 158.835 -398.007 133.339 -303.076 166.596C-224.362 194.177 -160.039 255.721 -104.08 315.693C-13.2833 413.028 84.0516 597.917 225.23 625.498C321.187 644.259 334.648 548.335 355.608 476.304C391.6 352.735 456.405 215.953 580.789 158.482C828.245 44.1496 961.699 335.321 1144.22 429.481C1239.25 478.485 1362.29 503.597 1468.15 486.535C1602.34 464.919 1725.06 385.351 1841.82 320.793" stroke="url(#paint18_linear_172_6376)" stroke-miterlimit="10"/>
<path d="M-561.941 166.019C-470.087 112.878 -381.31 82.2499 -279.616 128.175C-203.306 162.652 -142.764 226.024 -88.0552 287.535C-6.07217 379.707 97.2559 573.896 235.166 588.456C338.974 599.424 352.083 485.99 374.325 409.405C408.714 291.031 470.634 164.127 595.276 118.458C840.872 28.4351 982.884 298.375 1160.09 403.856C1249.63 457.158 1366.68 493.655 1471.42 480.602C1611.73 463.091 1733.17 361.491 1841.75 279.55" stroke="url(#paint19_linear_172_6376)" stroke-miterlimit="10"/>
<path d="M-561.941 129.747C-475.215 74.4566 -389.835 35.9717 -287.372 77.3751C-205.261 110.568 -139.879 181.028 -83.472 246.869C-2.8351 340.997 98.57 534.256 241.832 537.656C343.974 540.061 362.884 424.991 386.985 348.149C424.259 229.423 483.198 114.257 613.929 80.6784C864.269 16.3443 1003.27 263.161 1182.39 381.567C1270.08 439.551 1387.03 487.369 1493.85 471.943C1633.56 451.738 1745.79 335.545 1841.78 242.347" stroke="url(#paint20_linear_172_6376)" stroke-miterlimit="10"/>
<path d="M-561.941 97.7081C-482.33 39.9485 -399.642 -8.4464 -298.397 25.4845C-219.491 51.9109 -157.346 116.63 -104.24 178.013C-17.2574 278.523 70.2382 457.318 219.974 468.736C333.815 477.395 363.396 366.686 396.151 279.101C440.828 159.605 503.101 58.4213 639.921 39.9164C882.473 7.10795 1022.24 215.793 1190.76 347.155C1275.24 412.996 1389.63 476.048 1500.17 465.272C1646.79 450.968 1754.7 314.539 1841.78 209.956" stroke="url(#paint21_linear_172_6376)" stroke-miterlimit="10"/>
<path d="M-561.941 72.4362C-482.715 17.114 -401.02 -28.4266 -301.794 3.90084C-224.523 29.0765 -163.019 90.9411 -110.554 150.465C-26.039 246.292 63.4116 430.251 208.853 435.286C321.315 439.166 359.807 339.49 400.125 251.873C451.821 139.593 521.786 36.8055 654.471 18.8779C888.53 -12.7439 1034.74 182.215 1200.85 306.906C1282.36 368.065 1397.32 430.283 1501.99 428.23C1648.33 425.344 1756.72 286.06 1841.78 184.396" stroke="url(#paint22_linear_172_6376)" stroke-miterlimit="10"/>
<path d="M-561.941 55.1499C-483.965 1.75196 -403.456 -42.5379 -306.185 -13.0968C-231.029 9.64139 -170.423 67.5613 -118.791 124.263C-35.6219 215.632 53.444 397.666 194.174 398.532C304.521 399.206 351.506 311.332 399.676 225.735C458.52 121.184 535.759 20.8662 663.734 3.29137C889.331 -27.657 1041.73 147.193 1207.94 263.578C1288.64 320.087 1402.35 383.138 1502.22 392.054C1647.82 405.043 1757.97 264.38 1841.75 166.372" stroke="url(#paint23_linear_172_6376)" stroke-miterlimit="10"/>
<path d="M-561.941 44.4384C-487.137 -6.71464 -407.174 -50.9403 -313.749 -27.2079C-234.105 -7.00329 -170.839 53.2578 -116.611 111.595C-34.1797 200.271 48.4764 364.986 186.194 358.861C290.387 354.243 343.494 275.092 397.914 197.192C464.737 101.492 545.406 11.7582 667.772 -5.62423C889.972 -37.214 1045.64 113.936 1218.51 221.758C1298.38 271.596 1399.72 330.703 1491.74 354.531C1640.9 393.145 1754.48 253.284 1841.78 154.505" stroke="url(#paint24_linear_172_6376)" stroke-miterlimit="10"/>
<path d="M-561.941 38.9221C-489.189 -11.4612 -410.923 -56.649 -319.037 -37.9517C-242.535 -22.3653 -180.358 31.2572 -127.06 85.1041C-43.4741 169.515 34.3424 321.113 167.765 315.18C268.978 310.69 329.84 244.047 391.76 172.241C465.955 86.2266 551.592 4.5101 669.246 -12.6157C882.056 -43.5962 1045.12 77.2468 1220.02 173.395C1306.81 221.117 1398.09 279.453 1489.2 318.067C1635.9 380.252 1751.21 245.683 1841.75 147.514" stroke="url(#paint25_linear_172_6376)" stroke-miterlimit="10"/>
<path d="M-561.941 37.2223C-408.872 -71.3695 -276.475 -70.8244 -137.476 57.9401C-52.1274 136.995 20.4009 272.686 149.144 268.068C247.056 264.54 315.13 210.533 384.133 147.129C465.443 72.4361 555.021 0.180508 667.996 -16.6246C870.775 -46.8033 1042.46 40.5897 1218.93 123.493C1316.07 169.13 1394.66 226.376 1485.13 281.891C1628.01 369.54 1744.64 244.4 1841.82 144.179" stroke="url(#paint26_linear_172_6376)" stroke-miterlimit="10"/>
<path d="M-561.941 37.9601C-419.481 -66.4626 -288.365 -86.7314 -147.283 29.4934C-59.6912 101.653 7.77337 219.866 131.293 217.429C336.955 213.388 463.616 11.8223 664.631 -18.5808C857.186 -47.7011 1038.07 3.93291 1215.18 72.34C1323.44 114.16 1391.61 173.395 1479.43 245.651C1617.18 358.989 1734.26 248.12 1841.78 143.024" stroke="url(#paint27_linear_172_6376)" stroke-miterlimit="10"/>
<path d="M-561.941 39.756C-431.66 -59.5995 -301.57 -101.676 -159.269 -3.251C-71.2932 57.5874 -6.77718 159.252 106.903 163.165C311.316 170.252 463.423 10.0263 659.599 -20.6013C838.597 -48.535 1029.9 -33.0448 1202.58 18.7817C1325.53 55.6952 1388.31 122.819 1474.97 212.425C1507.34 245.907 1543.75 280.768 1592.37 286.028C1689.1 296.451 1779.57 200.527 1841.78 142.928" stroke="url(#paint28_linear_172_6376)" stroke-miterlimit="10"/>
<path d="M-561.941 41.2312C-440.73 -54.9171 -311.249 -116.012 -165.776 -35.5143C-75.7802 14.2917 -13.1872 98.8305 94.1471 105.084C293.848 116.726 462.077 9.64146 654.183 -20.2165C826.514 -46.9956 1021.79 -69.3169 1193.9 -32.3713C1326.3 -3.95658 1385.84 75.2905 1466.1 176.57C1496.83 215.376 1531.64 260.019 1582.44 272.205C1680.57 295.745 1777.39 198.988 1841.75 142.575" stroke="url(#paint29_linear_172_6376)" stroke-miterlimit="10"/>
<path d="M-561.941 40.9747C-443.646 -56.5206 -312.178 -131.983 -159.878 -66.9437C-76.8378 -31.4733 -15.046 33.5343 77.3532 42.5783C275.933 62.0453 456.501 9.22461 650.401 -19.2543C752.575 -34.2635 853.243 -49.1443 954.552 -69.5735C1033.3 -85.4485 1109.83 -93.6907 1189.89 -82.2094C1328.22 -62.3896 1386.65 36.5169 1458.37 144.275C1487.09 187.41 1521.61 240.969 1573.78 258.126C1673.78 291.031 1773.52 197.384 1841.78 140.523" stroke="url(#paint30_linear_172_6376)" stroke-miterlimit="10"/>
<path d="M-561.941 37.6394C-448.005 -59.2787 -316.473 -149.077 -160.744 -107.545C-78.1839 -85.5127 -11.5526 -34.2635 74.2443 -23.4235C269.972 1.27102 451.309 6.88343 646.876 -20.3768C750.428 -34.8087 847.507 -56.0717 946.284 -90.3233C1022.34 -116.686 1095.31 -138.301 1176.85 -132.529C1322.03 -122.266 1381.01 -5.43179 1446.55 108.035C1474.46 156.366 1508.18 218.551 1562.28 242.059C1664.2 286.349 1769.22 193.279 1841.85 135.648" stroke="url(#paint31_linear_172_6376)" stroke-miterlimit="10"/>
<path d="M-561.941 29.8461C-449.607 -67.97 -318.588 -167.871 -161 -152.733C-76.3891 -144.619 1.04292 -104.595 85.0451 -92.2155C277.055 -63.897 445.956 0.725801 643.19 -23.3594C747.544 -36.1236 841.321 -63.3838 935.355 -110.015C1006.18 -145.132 1073.68 -180.667 1154.83 -181.693C1312.58 -183.617 1372.16 -45.7448 1435.68 75.8678C1463.12 128.4 1496.1 196.743 1551.99 224.901C1655.7 277.176 1765.06 185.101 1841.78 126.508" stroke="url(#paint32_linear_172_6376)" stroke-miterlimit="10"/>
<path d="M-561.941 16.216C-447.3 -84.7751 -315.928 -191.186 -156.802 -201.705C-71.0047 -207.382 19.3113 -181.854 102.801 -164.535C290.58 -125.601 446.918 -7.16365 646.331 -28.7153C748.858 -39.7797 839.398 -73.1654 925.355 -129.482C994.711 -174.926 1058.26 -223.642 1144.38 -228.677C1305.56 -238.074 1364.6 -77.944 1423.41 43.5724C1451.35 101.268 1483.44 171.054 1541.06 205.21C1644.55 266.529 1763.87 169.643 1841.78 111.915" stroke="url(#paint33_linear_172_6376)" stroke-miterlimit="10"/>
<path d="M-561.941 -4.69427C-365.765 -177.107 -159.013 -310.041 108.057 -245.45C298.175 -199.46 444.61 -20.6014 650.882 -37.4707C755.396 -46.0336 843.436 -88.0143 922.951 -154.497C985.224 -206.548 1040.7 -263.634 1125.67 -272.839C1287.71 -290.381 1347.1 -126.371 1402.64 -5.01495C1432.96 61.2113 1465.78 144.05 1531.57 183.497C1637.66 247.094 1760.86 149.374 1841.75 90.492" stroke="url(#paint34_linear_172_6376)" stroke-miterlimit="10"/>
<path d="M-561.941 -33.109C-373.169 -194.489 -130.329 -372.996 133.76 -298.976C319.136 -247.022 459.193 -49.1765 662.932 -59.6316C764.818 -64.8592 851.384 -113.703 923.304 -182.912C980.352 -237.785 1031.34 -299.682 1115.25 -308.982C1270.69 -326.269 1333.96 -164.375 1388.73 -49.2727C1421.52 19.5834 1455.87 103.866 1523.31 146.231C1631.28 214.061 1755.99 121.44 1841.75 61.6603" stroke="url(#paint35_linear_172_6376)" stroke-miterlimit="10"/>
<path d="M-561.941 -62.8066C-372.496 -217.324 -123.79 -387.941 136.132 -323.863C327.18 -276.783 478.519 -80.4455 685.367 -93.8832C779.113 -99.9767 857.666 -145.549 923.496 -209.819C976.026 -261.101 1022.08 -319.534 1098.78 -332.073C1251.75 -357.089 1327.32 -191.122 1386.68 -81.0549C1420.78 -17.8753 1457.76 55.3424 1519.65 96.1045C1627.88 167.398 1749.67 88.4716 1841.78 29.1405" stroke="url(#paint36_linear_172_6376)" stroke-miterlimit="10"/>
<path d="M-561.941 -92.5042C-368.906 -241.569 -108.086 -406.414 149.914 -340.732C337.5 -292.979 498.069 -113.767 700.495 -124.767C786.805 -129.45 862.378 -175.471 922.727 -234.033C971.09 -280.952 1014.13 -336.852 1083.62 -351.572C1234.19 -383.451 1320.78 -216.201 1386.36 -111.779C1425.78 -49.0161 1466.99 20.0645 1534.68 55.5669C1641.79 111.723 1748.33 49.73 1841.78 -5.7846" stroke="url(#paint37_linear_172_6376)" stroke-miterlimit="10"/>
<path d="M-561.941 -122.202C-362.721 -266.617 -95.5547 -418.28 162.189 -354.395C347.981 -308.341 515.376 -142.406 714.693 -156.036C794.977 -161.521 863.595 -201.898 920.964 -255.873C969.199 -301.253 1012.53 -356.575 1081.44 -369.308C1224.6 -395.798 1317.87 -238.747 1387.74 -141.444C1427.83 -85.6089 1470.33 -28.6511 1531.45 5.18363C1637.79 64.0015 1744.96 10.1546 1841.78 -42.6981" stroke="url(#paint38_linear_172_6376)" stroke-miterlimit="10"/>
<path d="M-561.941 -151.899C-361.343 -287.078 -102.51 -417.574 149.016 -370.141C343.686 -333.42 519.606 -170.629 724.051 -184.964C801.579 -190.416 867.602 -229.992 924.073 -280.856C970.257 -322.484 1012.21 -370.462 1076.21 -382.553C1208.71 -407.6 1307.35 -272.325 1380.17 -183.938C1427.83 -126.05 1479.91 -62.5179 1551.22 -32.9165C1652.05 8.93593 1751.31 -35.7708 1841.82 -81.119" stroke="url(#paint39_linear_172_6376)" stroke-miterlimit="10"/>
<defs>
<linearGradient id="paint0_linear_172_6376" x1="639.905" y1="755.473" x2="639.905" y2="1035.72" gradientUnits="userSpaceOnUse">
<stop stop-color="#333333"/>
<stop offset="1" stop-color="#333333" stop-opacity="0"/>
</linearGradient>
<linearGradient id="paint1_linear_172_6376" x1="639.921" y1="703.176" x2="639.921" y2="1020.52" gradientUnits="userSpaceOnUse">
<stop stop-color="#333333"/>
<stop offset="1" stop-color="#333333" stop-opacity="0"/>
</linearGradient>
<linearGradient id="paint2_linear_172_6376" x1="639.921" y1="651.08" x2="639.921" y2="1006.31" gradientUnits="userSpaceOnUse">
<stop stop-color="#333333"/>
<stop offset="1" stop-color="#333333" stop-opacity="0"/>
</linearGradient>
<linearGradient id="paint3_linear_172_6376" x1="639.921" y1="600.064" x2="639.921" y2="992.596" gradientUnits="userSpaceOnUse">
<stop stop-color="#333333"/>
<stop offset="1" stop-color="#333333" stop-opacity="0"/>
</linearGradient>
<linearGradient id="paint4_linear_172_6376" x1="639.905" y1="553.487" x2="639.905" y2="978.34" gradientUnits="userSpaceOnUse">
<stop stop-color="#333333"/>
<stop offset="1" stop-color="#333333" stop-opacity="0"/>
</linearGradient>
<linearGradient id="paint5_linear_172_6376" x1="639.921" y1="508.885" x2="639.921" y2="963.691" gradientUnits="userSpaceOnUse">
<stop stop-color="#333333"/>
<stop offset="1" stop-color="#333333" stop-opacity="0"/>
</linearGradient>
<linearGradient id="paint6_linear_172_6376" x1="639.921" y1="466.157" x2="639.921" y2="948.303" gradientUnits="userSpaceOnUse">
<stop stop-color="#333333"/>
<stop offset="1" stop-color="#333333" stop-opacity="0"/>
</linearGradient>
<linearGradient id="paint7_linear_172_6376" x1="639.937" y1="423.824" x2="639.937" y2="931.404" gradientUnits="userSpaceOnUse">
<stop stop-color="#333333"/>
<stop offset="1" stop-color="#333333" stop-opacity="0"/>
</linearGradient>
<linearGradient id="paint8_linear_172_6376" x1="639.921" y1="394.26" x2="639.921" y2="899.621" gradientUnits="userSpaceOnUse">
<stop stop-color="#333333"/>
<stop offset="1" stop-color="#333333" stop-opacity="0"/>
</linearGradient>
<linearGradient id="paint9_linear_172_6376" x1="639.937" y1="374.345" x2="639.937" y2="858.335" gradientUnits="userSpaceOnUse">
<stop stop-color="#333333"/>
<stop offset="1" stop-color="#333333" stop-opacity="0"/>
</linearGradient>
<linearGradient id="paint10_linear_172_6376" x1="639.937" y1="354.587" x2="639.937" y2="821.591" gradientUnits="userSpaceOnUse">
<stop stop-color="#333333"/>
<stop offset="1" stop-color="#333333" stop-opacity="0"/>
</linearGradient>
<linearGradient id="paint11_linear_172_6376" x1="639.905" y1="331.544" x2="639.905" y2="789.275" gradientUnits="userSpaceOnUse">
<stop stop-color="#333333"/>
<stop offset="1" stop-color="#333333" stop-opacity="0"/>
</linearGradient>
<linearGradient id="paint12_linear_172_6376" x1="639.921" y1="308.884" x2="639.921" y2="761.421" gradientUnits="userSpaceOnUse">
<stop stop-color="#333333"/>
<stop offset="1" stop-color="#333333" stop-opacity="0"/>
</linearGradient>
<linearGradient id="paint13_linear_172_6376" x1="639.937" y1="283.305" x2="639.937" y2="736.676" gradientUnits="userSpaceOnUse">
<stop stop-color="#333333"/>
<stop offset="1" stop-color="#333333" stop-opacity="0"/>
</linearGradient>
<linearGradient id="paint14_linear_172_6376" x1="639.937" y1="257.206" x2="639.937" y2="716.636" gradientUnits="userSpaceOnUse">
<stop stop-color="#333333"/>
<stop offset="1" stop-color="#333333" stop-opacity="0"/>
</linearGradient>
<linearGradient id="paint15_linear_172_6376" x1="639.937" y1="229.376" x2="639.937" y2="698.357" gradientUnits="userSpaceOnUse">
<stop stop-color="#333333"/>
<stop offset="1" stop-color="#333333" stop-opacity="0"/>
</linearGradient>
<linearGradient id="paint16_linear_172_6376" x1="639.937" y1="197.934" x2="639.937" y2="679.671" gradientUnits="userSpaceOnUse">
<stop stop-color="#333333"/>
<stop offset="1" stop-color="#333333" stop-opacity="0"/>
</linearGradient>
<linearGradient id="paint17_linear_172_6376" x1="639.921" y1="164.299" x2="639.921" y2="657.567" gradientUnits="userSpaceOnUse">
<stop stop-color="#333333"/>
<stop offset="1" stop-color="#333333" stop-opacity="0"/>
</linearGradient>
<linearGradient id="paint18_linear_172_6376" x1="639.937" y1="132.277" x2="639.937" y2="627.882" gradientUnits="userSpaceOnUse">
<stop stop-color="#333333"/>
<stop offset="1" stop-color="#333333" stop-opacity="0"/>
</linearGradient>
<linearGradient id="paint19_linear_172_6376" x1="639.905" y1="100.375" x2="639.905" y2="589.196" gradientUnits="userSpaceOnUse">
<stop stop-color="#333333"/>
<stop offset="1" stop-color="#333333" stop-opacity="0"/>
</linearGradient>
<linearGradient id="paint20_linear_172_6376" x1="639.921" y1="59.9697" x2="639.921" y2="537.693" gradientUnits="userSpaceOnUse">
<stop stop-color="#333333"/>
<stop offset="1" stop-color="#333333" stop-opacity="0"/>
</linearGradient>
<linearGradient id="paint21_linear_172_6376" x1="639.921" y1="14.2495" x2="639.921" y2="469.214" gradientUnits="userSpaceOnUse">
<stop stop-color="#333333"/>
<stop offset="1" stop-color="#333333" stop-opacity="0"/>
</linearGradient>
<linearGradient id="paint22_linear_172_6376" x1="639.921" y1="-6.87598" x2="639.921" y2="435.396" gradientUnits="userSpaceOnUse">
<stop stop-color="#333333"/>
<stop offset="1" stop-color="#333333" stop-opacity="0"/>
</linearGradient>
<linearGradient id="paint23_linear_172_6376" x1="639.905" y1="-22.5105" x2="639.905" y2="398.536" gradientUnits="userSpaceOnUse">
<stop stop-color="#333333"/>
<stop offset="1" stop-color="#333333" stop-opacity="0"/>
</linearGradient>
<linearGradient id="paint24_linear_172_6376" x1="639.921" y1="-33.7943" x2="639.921" y2="361.107" gradientUnits="userSpaceOnUse">
<stop stop-color="#333333"/>
<stop offset="1" stop-color="#333333" stop-opacity="0"/>
</linearGradient>
<linearGradient id="paint25_linear_172_6376" x1="639.905" y1="-42.2612" x2="639.905" y2="333.888" gradientUnits="userSpaceOnUse">
<stop stop-color="#333333"/>
<stop offset="1" stop-color="#333333" stop-opacity="0"/>
</linearGradient>
<linearGradient id="paint26_linear_172_6376" x1="639.937" y1="-41.6062" x2="639.937" y2="311.518" gradientUnits="userSpaceOnUse">
<stop stop-color="#333333"/>
<stop offset="1" stop-color="#333333" stop-opacity="0"/>
</linearGradient>
<linearGradient id="paint27_linear_172_6376" x1="639.921" y1="-49.3651" x2="639.921" y2="293.33" gradientUnits="userSpaceOnUse">
<stop stop-color="#333333"/>
<stop offset="1" stop-color="#333333" stop-opacity="0"/>
</linearGradient>
<linearGradient id="paint28_linear_172_6376" x1="639.921" y1="-59.2498" x2="639.921" y2="286.812" gradientUnits="userSpaceOnUse">
<stop stop-color="#333333"/>
<stop offset="1" stop-color="#333333" stop-opacity="0"/>
</linearGradient>
<linearGradient id="paint29_linear_172_6376" x1="639.905" y1="-72.7903" x2="639.905" y2="275.828" gradientUnits="userSpaceOnUse">
<stop stop-color="#333333"/>
<stop offset="1" stop-color="#333333" stop-opacity="0"/>
</linearGradient>
<linearGradient id="paint30_linear_172_6376" x1="639.921" y1="-91.2629" x2="639.921" y2="264.957" gradientUnits="userSpaceOnUse">
<stop stop-color="#333333"/>
<stop offset="1" stop-color="#333333" stop-opacity="0"/>
</linearGradient>
<linearGradient id="paint31_linear_172_6376" x1="639.953" y1="-133.469" x2="639.953" y2="253.633" gradientUnits="userSpaceOnUse">
<stop stop-color="#333333"/>
<stop offset="1" stop-color="#333333" stop-opacity="0"/>
</linearGradient>
<linearGradient id="paint32_linear_172_6376" x1="639.921" y1="-181.713" x2="639.921" y2="240.386" gradientUnits="userSpaceOnUse">
<stop stop-color="#333333"/>
<stop offset="1" stop-color="#333333" stop-opacity="0"/>
</linearGradient>
<linearGradient id="paint33_linear_172_6376" x1="639.921" y1="-229.072" x2="639.921" y2="224.821" gradientUnits="userSpaceOnUse">
<stop stop-color="#333333"/>
<stop offset="1" stop-color="#333333" stop-opacity="0"/>
</linearGradient>
<linearGradient id="paint34_linear_172_6376" x1="639.905" y1="-274.136" x2="639.905" y2="204.213" gradientUnits="userSpaceOnUse">
<stop stop-color="#333333"/>
<stop offset="1" stop-color="#333333" stop-opacity="0"/>
</linearGradient>
<linearGradient id="paint35_linear_172_6376" x1="639.905" y1="-316.216" x2="639.905" y2="170.04" gradientUnits="userSpaceOnUse">
<stop stop-color="#333333"/>
<stop offset="1" stop-color="#333333" stop-opacity="0"/>
</linearGradient>
<linearGradient id="paint36_linear_172_6376" x1="639.921" y1="-337.704" x2="639.921" y2="124.389" gradientUnits="userSpaceOnUse">
<stop stop-color="#333333"/>
<stop offset="1" stop-color="#333333" stop-opacity="0"/>
</linearGradient>
<linearGradient id="paint37_linear_172_6376" x1="639.921" y1="-355.576" x2="639.921" y2="77.6857" gradientUnits="userSpaceOnUse">
<stop stop-color="#333333"/>
<stop offset="1" stop-color="#333333" stop-opacity="0"/>
</linearGradient>
<linearGradient id="paint38_linear_172_6376" x1="639.921" y1="-372.274" x2="639.921" y2="30.7892" gradientUnits="userSpaceOnUse">
<stop stop-color="#333333"/>
<stop offset="1" stop-color="#333333" stop-opacity="0"/>
</linearGradient>
<linearGradient id="paint39_linear_172_6376" x1="639.937" y1="-385.595" x2="639.937" y2="-16.233" gradientUnits="userSpaceOnUse">
<stop stop-color="#333333"/>
<stop offset="1" stop-color="#333333" stop-opacity="0"/>
</linearGradient>
</defs>
</svg>
