<svg width="69" height="31" viewBox="0 0 69 31" fill="none" xmlns="http://www.w3.org/2000/svg">
<g clip-path="url(#clip0_104_13727)">
<path d="M15 30.5165C23.2843 30.5165 30 23.8008 30 15.5165C30 7.23225 23.2843 0.516602 15 0.516602C6.71573 0.516602 0 7.23225 0 15.5165C0 23.8008 6.71573 30.5165 15 30.5165Z" fill="#666666"/>
<path d="M0 45.5C8.28427 45.5 15 38.7843 15 30.5C15 22.2157 8.28427 15.5 0 15.5C-8.28427 15.5 -15 22.2157 -15 30.5C-15 38.7843 -8.28427 45.5 0 45.5Z" fill="#1A1A1A"/>
<path d="M30 45.5C38.2843 45.5 45 38.7843 45 30.5C45 22.2157 38.2843 15.5 30 15.5C21.7157 15.5 15 22.2157 15 30.5C15 38.7843 21.7157 45.5 30 45.5Z" fill="#1A1A1A"/>
<path d="M0 15.5C8.28427 15.5 15 8.78427 15 0.5C15 -7.78427 8.28427 -14.5 0 -14.5C-8.28427 -14.5 -15 -7.78427 -15 0.5C-15 8.78427 -8.28427 15.5 0 15.5Z" fill="#1A1A1A"/>
<path d="M30 15.5C38.2843 15.5 45 8.78427 45 0.5C45 -7.78427 38.2843 -14.5 30 -14.5C21.7157 -14.5 15 -7.78427 15 0.5C15 8.78427 21.7157 15.5 30 15.5Z" fill="#1A1A1A"/>
</g>
<g clip-path="url(#clip1_104_13727)">
<path d="M45 24.51C49.9706 24.51 54 20.4805 54 15.51C54 10.5394 49.9706 6.51001 45 6.51001C40.0294 6.51001 36 10.5394 36 15.51C36 20.4805 40.0294 24.51 45 24.51Z" fill="#333333"/>
<path d="M36 33.5C40.9706 33.5 45 29.4706 45 24.5C45 19.5294 40.9706 15.5 36 15.5C31.0294 15.5 27 19.5294 27 24.5C27 29.4706 31.0294 33.5 36 33.5Z" fill="#1A1A1A"/>
<path d="M54 33.5C58.9706 33.5 63 29.4706 63 24.5C63 19.5294 58.9706 15.5 54 15.5C49.0294 15.5 45 19.5294 45 24.5C45 29.4706 49.0294 33.5 54 33.5Z" fill="#1A1A1A"/>
<path d="M36 15.5C40.9706 15.5 45 11.4706 45 6.5C45 1.52944 40.9706 -2.5 36 -2.5C31.0294 -2.5 27 1.52944 27 6.5C27 11.4706 31.0294 15.5 36 15.5Z" fill="#1A1A1A"/>
<path d="M54 15.5C58.9706 15.5 63 11.4706 63 6.5C63 1.52944 58.9706 -2.5 54 -2.5C49.0294 -2.5 45 1.52944 45 6.5C45 11.4706 49.0294 15.5 54 15.5Z" fill="#1A1A1A"/>
</g>
<g clip-path="url(#clip2_104_13727)">
<path d="M64.2 19.7047C66.5196 19.7047 68.4 17.8243 68.4 15.5047C68.4 13.1851 66.5196 11.3047 64.2 11.3047C61.8804 11.3047 60 13.1851 60 15.5047C60 17.8243 61.8804 19.7047 64.2 19.7047Z" fill="#333333"/>
<path d="M60.0008 23.9C62.3204 23.9 64.2008 22.0196 64.2008 19.7C64.2008 17.3804 62.3204 15.5 60.0008 15.5C57.6812 15.5 55.8008 17.3804 55.8008 19.7C55.8008 22.0196 57.6812 23.9 60.0008 23.9Z" fill="#1A1A1A"/>
<path d="M68.3992 23.9C70.7188 23.9 72.5992 22.0196 72.5992 19.7C72.5992 17.3804 70.7188 15.5 68.3992 15.5C66.0796 15.5 64.1992 17.3804 64.1992 19.7C64.1992 22.0196 66.0796 23.9 68.3992 23.9Z" fill="#1A1A1A"/>
<path d="M60.0008 15.5001C62.3204 15.5001 64.2008 13.6197 64.2008 11.3001C64.2008 8.9805 62.3204 7.1001 60.0008 7.1001C57.6812 7.1001 55.8008 8.9805 55.8008 11.3001C55.8008 13.6197 57.6812 15.5001 60.0008 15.5001Z" fill="#1A1A1A"/>
<path d="M68.3992 15.5001C70.7188 15.5001 72.5992 13.6197 72.5992 11.3001C72.5992 8.9805 70.7188 7.1001 68.3992 7.1001C66.0796 7.1001 64.1992 8.9805 64.1992 11.3001C64.1992 13.6197 66.0796 15.5001 68.3992 15.5001Z" fill="#1A1A1A"/>
</g>
<defs>
<clipPath id="clip0_104_13727">
<rect width="30" height="30" fill="white" transform="translate(0 0.5)"/>
</clipPath>
<clipPath id="clip1_104_13727">
<rect width="18" height="18" fill="white" transform="translate(36 6.5)"/>
</clipPath>
<clipPath id="clip2_104_13727">
<rect width="8.4" height="8.4" fill="white" transform="translate(60 11.3)"/>
</clipPath>
</defs>
</svg>
